<svg width="1em" height="1em" viewBox="0 0 150 150" fill="none" xmlns="http://www.w3.org/2000/svg"><g clip-path="url(#clip0_1164_7357)"><g clip-path="url(#clip1_1164_7357)"><g clip-path="url(#clip2_1164_7357)"><mask id="mask0_1164_7357" style="mask-type:alpha" maskUnits="userSpaceOnUse" x="-23" y="-20" width="182" height="153"><ellipse cx="67.9432" cy="56.6709" rx="67.04" ry="97.225" transform="rotate(60 67.9432 56.6709)" fill="#D9D9D9"></ellipse></mask><g mask="url(#mask0_1164_7357)"><path d="M102.953 43.125L127.675 64.0713V107.675H23.1248V63.8564L47.0466 43.125H102.953Z" fill="url(#paint0_linear_1164_7357)" stroke="url(#paint1_linear_1164_7357)" stroke-width="0.25"></path><foreignObject x="-7.40024" y="33.3998" width="165.6" height="123.2"><div xmlns="http://www.w3.org/1999/xhtml" style="backdrop-filter:blur(15.2px);clip-path:url(#bgblur_3_1164_7357_clip_path);height:100%;width:100%"></div></foreignObject><path data-figma-bg-blur-radius="30.4" d="M47.8816 64.0498C48.5814 64.0499 49.2142 64.4672 49.49 65.1104L53.03 73.3662C53.3847 74.1929 54.1979 74.7283 55.0974 74.7285H95.7019C96.6015 74.7284 97.4146 74.1929 97.7693 73.3662L101.31 65.1104C101.569 64.5073 102.141 64.1029 102.788 64.0547L102.919 64.0498H127.55V124.2C127.549 125.167 126.766 125.95 125.8 125.95H24.9998C24.0334 125.95 23.25 125.167 23.2498 124.2V64.0498H47.8816Z" fill="url(#paint2_linear_1164_7357)" fill-opacity="0.3" stroke="url(#paint3_linear_1164_7357)" stroke-width="0.5"></path><path d="M34.9998 103.8H46.9998" stroke="black" stroke-opacity="0.2" stroke-width="1.5" stroke-linecap="round" stroke-linejoin="round"></path><path d="M34.9998 110.8H66.9998" stroke="black" stroke-opacity="0.2" stroke-width="1.5" stroke-linecap="round" stroke-linejoin="round"></path></g><path d="M117 26.8408L117.922 22.9997" stroke="url(#paint4_linear_1164_7357)" stroke-opacity="0.5" stroke-width="2.5" stroke-linecap="round" stroke-linejoin="round"></path><line x1="123.31" y1="31.1141" x2="126.567" y2="29.1178" stroke="url(#paint5_linear_1164_7357)" stroke-opacity="0.5" stroke-width="2.5" stroke-linecap="round" stroke-linejoin="round"></line><path d="M126.482 39.2353L133.077 39.3817" stroke="url(#paint6_linear_1164_7357)" stroke-opacity="0.5" stroke-width="2.5" stroke-linecap="round" stroke-linejoin="round"></path><path d="M125.5 97C116.5 105.5 96.5 120.5 64.5 129.5" stroke="url(#paint7_linear_1164_7357)" stroke-width="1.25" stroke-linecap="round"></path></g></g></g><defs><clipPath id="bgblur_3_1164_7357_clip_path" transform="translate(7.40024 -33.3998)"><path d="M47.8816 64.0498C48.5814 64.0499 49.2142 64.4672 49.49 65.1104L53.03 73.3662C53.3847 74.1929 54.1979 74.7283 55.0974 74.7285H95.7019C96.6015 74.7284 97.4146 74.1929 97.7693 73.3662L101.31 65.1104C101.569 64.5073 102.141 64.1029 102.788 64.0547L102.919 64.0498H127.55V124.2C127.549 125.167 126.766 125.95 125.8 125.95H24.9998C24.0334 125.95 23.25 125.167 23.2498 124.2V64.0498H47.8816Z"></path></clipPath><linearGradient id="paint0_linear_1164_7357" x1="75.3259" y1="51.5383" x2="75.3259" y2="115.538" gradientUnits="userSpaceOnUse"><stop stop-color="#CFCFCF"></stop><stop offset="1" stop-color="white"></stop></linearGradient><linearGradient id="paint1_linear_1164_7357" x1="45.3998" y1="41.0482" x2="54.9569" y2="75.9118" gradientUnits="userSpaceOnUse"><stop stop-color="white" stop-opacity="0.2"></stop><stop offset="1" stop-color="white" stop-opacity="0"></stop></linearGradient><linearGradient id="paint2_linear_1164_7357" x1="75.3998" y1="63.7998" x2="75.3998" y2="126.2" gradientUnits="userSpaceOnUse"><stop stop-color="white" stop-opacity="0.8"></stop><stop offset="1" stop-color="#E2E2E2"></stop></linearGradient><linearGradient id="paint3_linear_1164_7357" x1="22.9998" y1="63.7998" x2="128.854" y2="65.8782" gradientUnits="userSpaceOnUse"><stop stop-color="white" stop-opacity="0.1"></stop><stop offset="0.571657" stop-color="white" stop-opacity="0.05"></stop><stop offset="1" stop-color="white" stop-opacity="0.1"></stop></linearGradient><linearGradient id="paint4_linear_1164_7357" x1="118.408" y1="23.1164" x2="117.486" y2="26.9575" gradientUnits="userSpaceOnUse"><stop stop-opacity="0.5"></stop><stop offset="1" stop-opacity="0.4"></stop></linearGradient><linearGradient id="paint5_linear_1164_7357" x1="128.547" y1="29.9567" x2="123.158" y2="33.2593" gradientUnits="userSpaceOnUse"><stop stop-opacity="0.5"></stop><stop offset="1" stop-opacity="0.4"></stop></linearGradient><linearGradient id="paint6_linear_1164_7357" x1="132.914" y1="40.0609" x2="126.645" y2="38.5561" gradientUnits="userSpaceOnUse"><stop stop-opacity="0.5"></stop><stop offset="1" stop-opacity="0.4"></stop></linearGradient><linearGradient id="paint7_linear_1164_7357" x1="98.4312" y1="121.926" x2="126.164" y2="88.0628" gradientUnits="userSpaceOnUse"><stop stop-color="#DCDCDC"></stop><stop offset="0.672" stop-color="#DCDCDC" stop-opacity="0"></stop></linearGradient><clipPath id="clip0_1164_7357"><rect width="150" height="150" fill="white"></rect></clipPath><clipPath id="clip1_1164_7357"><rect width="150" height="150" fill="white"></rect></clipPath><clipPath id="clip2_1164_7357"><rect width="150" height="150" fill="white"></rect></clipPath></defs></svg>
